<svg viewBox="0 0 207 110.761" xmlns="http://www.w3.org/2000/svg" xmlns:xlink="http://www.w3.org/1999/xlink" width="207.000000" height="110.760742" fill="none" customFrame="#000000">
	<g id="лого неаполь">
		<circle id="Ellipse 1" cx="50" cy="50" r="50" fill="rgb(122.026,61.3137,27.5849)" />
		<circle id="Ellipse 1" cx="50" cy="50" r="49" stroke="rgb(253,212,134)" stroke-width="2" />
		<path id="Neapol" d="M100.918 24.5938C100.872 24.9355 100.724 25.209 100.474 25.4141C100.223 25.6191 99.9381 25.7217 99.6191 25.7217C99.5736 25.7217 99.4938 25.716 99.3799 25.7046C99.266 25.6932 99.0039 25.6875 98.5938 25.6875C98.1608 25.6875 97.6082 25.7331 96.936 25.8242C96.2638 25.9154 95.5233 26.1034 94.7144 26.3882C93.9054 26.673 93.0623 27.0889 92.1851 27.6357C91.3078 28.1826 90.4476 28.9175 89.6045 29.8403C88.7614 30.7632 87.9639 31.9025 87.2119 33.2583C86.46 34.6141 85.8219 36.249 85.2979 38.1631C85.0244 39.1201 84.7111 40.493 84.3579 42.2817C84.0047 44.0705 83.6287 46.0814 83.23 48.3145C82.8312 50.5475 82.4325 52.9287 82.0337 55.458C81.6349 57.9873 81.2589 60.471 80.9058 62.9092C80.5526 65.3473 80.2279 67.6658 79.9316 69.8647C79.6354 72.0636 79.4075 73.9492 79.248 75.5215C79.2025 75.8177 79.0715 76.0854 78.855 76.3247C78.6385 76.564 78.3708 76.6836 78.0518 76.6836C77.7327 76.6836 77.4536 76.6038 77.2144 76.4443C76.9751 76.2848 76.8099 76.0456 76.7188 75.7266C76.4225 74.6328 75.9554 73.1175 75.3174 71.1807C74.6794 69.2438 73.9445 67.062 73.1128 64.6353C72.2811 62.2085 71.3753 59.6279 70.3955 56.8936C69.4157 54.1592 68.4416 51.4533 67.4731 48.7759C66.5047 46.0985 65.5705 43.535 64.6704 41.0854C63.7703 38.6359 62.9785 36.4769 62.2949 34.6084C62.181 35.8844 62.0044 37.3029 61.7651 38.8638C61.5259 40.4246 61.2069 42.0994 60.8081 43.8882C60.4093 45.6769 59.9137 47.5682 59.3213 49.562C58.7288 51.5558 58.0225 53.6237 57.2021 55.7656C55.9261 59.0469 54.4279 61.8496 52.7075 64.1738C50.9871 66.498 49.1813 68.4349 47.29 69.9844C45.3988 71.5339 43.479 72.7586 41.5308 73.6587C39.5825 74.5588 37.7539 75.2367 36.0449 75.6924C34.3359 76.1481 32.7979 76.4386 31.4307 76.564C30.0635 76.6893 29.0153 76.752 28.2861 76.752C25.7796 76.752 23.4725 76.4215 21.3647 75.7607C19.257 75.0999 17.4341 74.16 15.896 72.9409C14.3579 71.7218 13.1616 70.2635 12.3071 68.5659C11.4526 66.8683 11.0254 64.9941 11.0254 62.9434C11.0254 61.0977 11.4412 59.3716 12.2729 57.7651C13.1047 56.1587 14.2212 54.763 15.6226 53.5781C17.0239 52.3932 18.6304 51.459 20.4419 50.7754C22.2534 50.0918 24.139 49.75 26.0986 49.75C27.7165 49.75 29.1691 49.9095 30.4565 50.2285C31.744 50.5475 32.8833 50.952 33.8745 51.4419C34.8657 51.9318 35.7202 52.4616 36.438 53.0312C37.1558 53.6009 37.7482 54.1421 38.2153 54.6548C38.6825 55.1675 39.0356 55.6061 39.2749 55.9707C39.5142 56.3353 39.6566 56.5518 39.7021 56.6201C39.7933 56.8024 39.8389 57.0075 39.8389 57.2354C39.8389 57.5544 39.7192 57.8506 39.48 58.124C39.2407 58.3975 38.9274 58.5342 38.54 58.5342C38.0387 58.5342 37.6628 58.3063 37.4121 57.8506C37.3893 57.7822 37.1672 57.4575 36.7456 56.8765C36.3241 56.2954 35.6746 55.6631 34.7974 54.9795C33.9201 54.2959 32.7865 53.675 31.3965 53.1167C30.0065 52.5584 28.3203 52.2793 26.3379 52.2793C24.7201 52.2793 23.1421 52.5527 21.604 53.0996C20.0659 53.6465 18.7044 54.3984 17.5195 55.3555C16.3346 56.3125 15.3833 57.4461 14.6655 58.7563C13.9478 60.0666 13.5889 61.485 13.5889 63.0117C13.5889 64.6751 13.9762 66.1961 14.751 67.5747C15.5257 68.9533 16.5796 70.1325 17.9126 71.1123C19.2456 72.0921 20.7951 72.8498 22.561 73.3853C24.327 73.9207 26.2126 74.1885 28.2178 74.1885C28.9925 74.1885 30.0179 74.1315 31.2939 74.0176C32.57 73.9036 33.9998 73.6416 35.5835 73.2314C37.1672 72.8213 38.8363 72.2004 40.5908 71.3687C42.3454 70.5369 44.0771 69.4033 45.7861 67.9678C47.4951 66.5322 49.13 64.7435 50.6909 62.6016C52.2518 60.4596 53.6247 57.862 54.8096 54.8086C56.04 51.6641 57.0028 48.6733 57.6978 45.8364C58.3927 42.9995 58.9111 40.4417 59.2529 38.1631C59.5947 35.8844 59.8055 33.9419 59.8853 32.3354C59.965 30.729 60.0049 29.584 60.0049 28.9004L60.0049 28.2168C60.0049 27.8522 60.1245 27.5389 60.3638 27.2769C60.603 27.0148 60.9163 26.8838 61.3037 26.8838C61.8734 26.8838 62.2721 27.1686 62.5 27.7383C62.5684 27.8978 62.7677 28.4333 63.0981 29.3447C63.4285 30.2562 63.8615 31.4354 64.397 32.8823C64.9324 34.3293 65.5477 35.9984 66.2427 37.8896C66.9377 39.7809 67.6725 41.7918 68.4473 43.9224C69.222 46.0529 70.0195 48.2575 70.8398 50.5361C71.6602 52.8148 72.4634 55.0592 73.2495 57.2695C74.0356 59.4798 74.7819 61.6104 75.4883 63.6611C76.1947 65.7119 76.8327 67.5804 77.4023 69.2666C77.653 67.4437 77.9264 65.5125 78.2227 63.4731C78.5189 61.4338 78.8322 59.3716 79.1626 57.2866C79.493 55.2017 79.8234 53.1566 80.1538 51.1514C80.4842 49.1462 80.8146 47.2663 81.145 45.5117C81.4754 43.7572 81.7773 42.1849 82.0508 40.7949C82.3242 39.4049 82.5749 38.2884 82.8027 37.4453C83.304 35.4401 84.0218 33.5659 84.9561 31.8228C85.8903 30.0796 87.0239 28.5586 88.3569 27.2598C89.6899 25.9609 91.2166 24.9412 92.937 24.2007C94.6574 23.4601 96.5658 23.0898 98.6621 23.0898C99.4596 23.0898 100.035 23.181 100.388 23.3633C100.741 23.5456 100.918 23.8988 100.918 24.4229L100.918 24.5938ZM94.3555 72.2402C94.834 72.901 95.4492 73.4308 96.2012 73.8296C96.9531 74.2283 97.876 74.4277 98.9697 74.4277C100.086 74.4277 101.1 74.16 102.012 73.6245C102.923 73.089 103.755 72.3884 104.507 71.5225C105.259 70.6566 105.931 69.6882 106.523 68.6172C107.116 67.5462 107.651 66.4753 108.13 65.4043C108.244 65.1536 108.403 64.9657 108.608 64.8403C108.813 64.715 109.041 64.6523 109.292 64.6523C109.679 64.6523 109.993 64.7891 110.232 65.0625C110.471 65.3359 110.591 65.6322 110.591 65.9512C110.591 66.0651 110.579 66.1619 110.557 66.2417C110.534 66.3215 110.5 66.4069 110.454 66.498C108.882 69.9616 107.167 72.5706 105.31 74.3252C103.453 76.0798 101.351 76.9798 99.0039 77.0254C97.5 77.0254 96.2012 76.7349 95.1074 76.1538C94.0137 75.5728 93.1136 74.8208 92.4072 73.8979C91.7008 72.9751 91.1768 71.9326 90.835 70.7705C90.4932 69.6084 90.3223 68.4463 90.3223 67.2842C90.3223 66.1221 90.4647 65.0511 90.7495 64.0713C91.0343 63.0915 91.4445 62.237 91.98 61.5078C92.5155 60.7786 93.1535 60.209 93.894 59.7988C94.6346 59.3887 95.4492 59.1836 96.3379 59.1836C96.862 59.1836 97.3804 59.2918 97.8931 59.5083C98.4058 59.7248 98.8672 60.0324 99.2773 60.4312C99.6875 60.8299 100.018 61.3141 100.269 61.8838C100.519 62.4534 100.645 63.1029 100.645 63.832C100.645 64.7663 100.485 65.6436 100.166 66.4639C99.847 67.2842 99.4084 68.0475 98.8501 68.7539C98.2918 69.4603 97.6253 70.1097 96.8506 70.7021C96.0758 71.2946 95.2441 71.8073 94.3555 72.2402ZM93.3301 70.0186C94.0365 69.7223 94.6802 69.3464 95.2612 68.8906C95.8423 68.4349 96.3379 67.9336 96.748 67.3867C97.1582 66.8398 97.4772 66.2645 97.7051 65.6606C97.9329 65.0568 98.0469 64.4473 98.0469 63.832C98.0469 63.1484 97.876 62.63 97.5342 62.2769C97.1924 61.9237 96.7936 61.7471 96.3379 61.7471C95.7227 61.7471 95.1986 61.918 94.7656 62.2598C94.3327 62.6016 93.9795 63.0459 93.7061 63.5928C93.4326 64.1396 93.2332 64.7492 93.1079 65.4214C92.9826 66.0936 92.9199 66.7601 92.9199 67.4209C92.9199 67.8311 92.9598 68.264 93.0396 68.7197C93.1193 69.1755 93.2161 69.6084 93.3301 70.0186ZM134.551 66.4639C134.46 66.6462 134.272 67.0278 133.987 67.6089C133.702 68.1899 133.337 68.8564 132.893 69.6084C132.449 70.3604 131.93 71.1465 131.338 71.9668C130.745 72.7871 130.085 73.5391 129.355 74.2227C128.626 74.9062 127.84 75.4702 126.997 75.9146C126.154 76.3589 125.265 76.5811 124.331 76.5811C123.009 76.5811 121.899 76.1595 120.999 75.3164C120.098 74.4733 119.443 73.4137 119.033 72.1377C118.258 73.4365 117.336 74.4676 116.265 75.231C115.194 75.9943 114.123 76.376 113.052 76.376C112.209 76.376 111.445 76.2222 110.762 75.9146C110.078 75.6069 109.497 75.174 109.019 74.6157C108.54 74.0574 108.17 73.4023 107.908 72.6504C107.646 71.8984 107.515 71.0781 107.515 70.1895C107.515 68.4121 107.817 66.8455 108.42 65.4897C109.024 64.134 109.793 63.0003 110.728 62.0889C111.662 61.1774 112.693 60.4938 113.821 60.0381C114.949 59.5824 116.037 59.3545 117.085 59.3545C117.791 59.3545 118.441 59.4513 119.033 59.645C119.626 59.8387 120.133 60.0495 120.554 60.2773C120.976 60.5052 121.3 60.716 121.528 60.9097C121.756 61.1034 121.882 61.2116 121.904 61.2344C122.155 61.5306 122.28 61.8382 122.28 62.1572C122.28 62.499 122.155 62.8009 121.904 63.063C121.654 63.325 121.357 63.4561 121.016 63.4561C120.651 63.4561 120.343 63.3307 120.093 63.0801C120.047 63.0345 119.945 62.9491 119.785 62.8237C119.626 62.6984 119.409 62.5674 119.136 62.4307C118.862 62.2939 118.538 62.1743 118.162 62.0718C117.786 61.9692 117.358 61.918 116.88 61.918C116.174 61.918 115.422 62.0775 114.624 62.3965C113.826 62.7155 113.097 63.2111 112.437 63.8833C111.776 64.5555 111.223 65.3986 110.779 66.4126C110.334 67.4266 110.112 68.6286 110.112 70.0186C110.112 70.4515 110.158 70.8901 110.249 71.3345C110.34 71.7788 110.5 72.1833 110.728 72.5479C110.955 72.9124 111.263 73.2087 111.65 73.4365C112.038 73.6644 112.516 73.7783 113.086 73.7783C113.496 73.7783 113.969 73.6416 114.504 73.3682C115.04 73.0947 115.553 72.6732 116.042 72.1035C116.532 71.5339 116.977 70.8161 117.375 69.9502C117.774 69.0843 118.053 68.0589 118.213 66.874C118.258 66.555 118.407 66.2873 118.657 66.0708C118.908 65.8543 119.204 65.7461 119.546 65.7461C119.865 65.7461 120.144 65.8714 120.383 66.1221C120.623 66.3727 120.754 66.6575 120.776 66.9766C120.799 67.4095 120.845 68.019 120.913 68.8052C120.981 69.5913 121.135 70.3717 121.375 71.1465C121.614 71.9212 121.973 72.5934 122.451 73.1631C122.93 73.7327 123.59 74.0176 124.434 74.0176C124.98 74.0176 125.522 73.8695 126.057 73.5732C126.593 73.277 127.117 72.884 127.629 72.394C128.142 71.9041 128.632 71.3459 129.099 70.7192C129.566 70.0926 129.993 69.4603 130.381 68.8223C130.768 68.1842 131.11 67.569 131.406 66.9766C131.702 66.3841 131.953 65.8714 132.158 65.4385C132.272 65.1878 132.437 64.9941 132.654 64.8574C132.87 64.7207 133.104 64.6523 133.354 64.6523C133.742 64.6523 134.055 64.7948 134.294 65.0796C134.534 65.3644 134.653 65.6663 134.653 65.9854C134.653 66.1449 134.619 66.3044 134.551 66.4639ZM149.727 66.4639C149.727 68.5602 149.351 70.349 148.599 71.8301C147.847 73.3112 146.924 74.4391 145.83 75.2139L145.967 75.2139C147.311 75.2139 148.536 74.9119 149.641 74.3081C150.746 73.7043 151.743 72.9295 152.632 71.9839C153.521 71.0383 154.318 69.9844 155.024 68.8223C155.731 67.6602 156.357 66.5322 156.904 65.4385C157.018 65.1878 157.183 64.9941 157.4 64.8574C157.616 64.7207 157.85 64.6523 158.101 64.6523C158.488 64.6523 158.796 64.7891 159.023 65.0625C159.251 65.3359 159.365 65.6322 159.365 65.9512C159.365 66.1335 159.331 66.3044 159.263 66.4639C158.67 67.7855 157.964 69.1128 157.144 70.4458C156.323 71.7788 155.366 72.9808 154.272 74.0518C153.179 75.1227 151.948 75.9943 150.581 76.6665C149.214 77.3387 147.699 77.6748 146.035 77.6748C144.827 77.6748 143.654 77.4868 142.515 77.1108C141.375 76.7349 140.373 76.1481 139.507 75.3506C139.188 75.0999 138.914 74.8322 138.687 74.5474C138.459 74.2625 138.276 73.9948 138.14 73.7441C138.094 73.6986 138.071 73.653 138.071 73.6074C137.935 73.4023 137.866 73.1859 137.866 72.958C137.866 72.6618 137.969 72.3884 138.174 72.1377C138.197 72.0921 138.219 72.0636 138.242 72.0522C138.265 72.0408 138.288 72.0238 138.311 72.001C138.538 71.7959 138.789 71.682 139.062 71.6592L139.165 71.6592C139.279 71.6592 139.359 71.6706 139.404 71.6934C139.427 71.6934 139.444 71.6991 139.456 71.7104C139.467 71.7218 139.484 71.7275 139.507 71.7275C139.575 71.7275 139.655 71.7503 139.746 71.7959C139.769 71.8187 139.792 71.8301 139.814 71.8301C140.02 71.9668 140.19 72.1377 140.327 72.3428C140.487 72.6162 140.669 72.8669 140.874 73.0947C141.056 73.277 141.273 73.4422 141.523 73.5903C141.774 73.7384 142.059 73.8125 142.378 73.8125C142.948 73.8125 143.517 73.6416 144.087 73.2998C144.657 72.958 145.169 72.4681 145.625 71.8301C146.081 71.1921 146.451 70.4173 146.736 69.5059C147.021 68.5944 147.163 67.5804 147.163 66.4639C147.163 65.6436 147.078 64.9429 146.907 64.3618C146.736 63.7808 146.519 63.3079 146.257 62.9434C145.995 62.5788 145.716 62.311 145.42 62.1401C145.124 61.9692 144.839 61.8838 144.565 61.8838C143.95 61.8838 143.329 62.2028 142.703 62.8408C142.076 63.4788 141.455 64.2878 140.84 65.2676C140.225 66.2474 139.615 67.3298 139.011 68.5146C138.407 69.6995 137.798 70.8503 137.183 71.9668C137.137 75.6582 137.074 79.1787 136.995 82.5283C136.915 85.8779 136.778 88.9883 136.584 91.8594C136.391 94.7305 136.123 97.3281 135.781 99.6523C135.439 101.977 134.972 103.965 134.38 105.617C133.787 107.269 133.058 108.539 132.192 109.428C131.327 110.316 130.267 110.761 129.014 110.761C128.626 110.761 128.182 110.681 127.681 110.521C127.179 110.362 126.712 110.037 126.279 109.547C125.846 109.057 125.482 108.357 125.186 107.445C124.889 106.534 124.741 105.315 124.741 103.788C124.741 101.851 124.98 99.6068 125.459 97.0547C125.938 94.5026 126.615 91.7967 127.493 88.937C128.37 86.0773 129.412 83.1436 130.62 80.1357C131.828 77.1279 133.161 74.1999 134.619 71.3516C134.619 70.554 134.625 69.7679 134.636 68.9932C134.648 68.2184 134.653 67.4665 134.653 66.7373C134.357 67.0791 134.004 67.25 133.594 67.25C133.206 67.25 132.899 67.1133 132.671 66.8398C132.443 66.5664 132.329 66.2702 132.329 65.9512C132.329 65.7917 132.363 65.6208 132.432 65.4385C132.979 64.1852 133.4 62.9946 133.696 61.8667C133.993 60.7388 134.215 59.7476 134.363 58.8931C134.511 58.0386 134.596 57.3607 134.619 56.8594C134.642 56.3581 134.653 56.096 134.653 56.0732C134.653 55.7314 134.779 55.4352 135.029 55.1846C135.28 54.9339 135.588 54.8086 135.952 54.8086C136.294 54.8086 136.59 54.9282 136.841 55.1675C137.091 55.4067 137.217 55.7087 137.217 56.0732L137.217 66.5664C137.741 65.6777 138.265 64.8005 138.789 63.9346C139.313 63.0687 139.866 62.2939 140.447 61.6104C141.028 60.9268 141.654 60.3742 142.327 59.9526C142.999 59.5311 143.745 59.3203 144.565 59.3203C145.34 59.3203 146.047 59.5026 146.685 59.8672C147.323 60.2318 147.869 60.7331 148.325 61.3711C148.781 62.0091 149.128 62.7668 149.368 63.644C149.607 64.5213 149.727 65.4613 149.727 66.4639ZM134.551 77.4355C133.434 79.9421 132.426 82.46 131.526 84.9893C130.626 87.5186 129.862 89.9567 129.236 92.3037C128.609 94.6507 128.125 96.8496 127.783 98.9004C127.441 100.951 127.271 102.751 127.271 104.301C127.271 104.688 127.293 105.11 127.339 105.565C127.384 106.021 127.476 106.443 127.612 106.83C127.749 107.217 127.943 107.542 128.193 107.804C128.444 108.066 128.774 108.197 129.185 108.197C129.937 108.197 130.586 107.724 131.133 106.779C131.68 105.833 132.141 104.557 132.517 102.951C132.893 101.344 133.206 99.4985 133.457 97.4136C133.708 95.3286 133.907 93.1468 134.055 90.8682C134.203 88.5895 134.312 86.2938 134.38 83.981C134.448 81.6681 134.505 79.4863 134.551 77.4355ZM172.661 72.2402C172.091 72.2402 171.59 72.1947 171.157 72.1035C170.815 72.7871 170.405 73.4194 169.927 74.0005C169.448 74.5815 168.896 75.0885 168.269 75.5215C167.642 75.9544 166.942 76.2962 166.167 76.5469C165.392 76.7975 164.549 76.9229 163.638 76.9229C162.567 76.9229 161.587 76.7349 160.698 76.3589C159.81 75.9829 159.035 75.4588 158.374 74.7866C157.713 74.1144 157.201 73.3055 156.836 72.3599C156.471 71.4142 156.289 70.3717 156.289 69.2324C156.289 67.7741 156.551 66.5037 157.075 65.4214C157.599 64.339 158.203 63.439 158.887 62.7212C159.57 62.0034 160.254 61.4679 160.938 61.1147C161.621 60.7616 162.134 60.585 162.476 60.585C162.863 60.585 163.153 60.6875 163.347 60.8926C163.541 61.0977 163.638 61.3711 163.638 61.7129C163.638 62.1003 163.518 62.3908 163.279 62.5845C163.04 62.7782 162.738 62.9661 162.373 63.1484C162.008 63.3307 161.621 63.5871 161.211 63.9175C160.801 64.2479 160.419 64.6637 160.066 65.165C159.713 65.6663 159.422 66.2588 159.194 66.9424C158.966 67.626 158.853 68.3893 158.853 69.2324C158.853 69.9844 158.966 70.6851 159.194 71.3345C159.422 71.9839 159.753 72.5422 160.186 73.0093C160.618 73.4764 161.131 73.841 161.724 74.103C162.316 74.3651 162.977 74.4961 163.706 74.4961C165.005 74.4961 166.082 74.1942 166.936 73.5903C167.791 72.9865 168.446 72.2175 168.901 71.2832C167.557 70.5768 166.452 69.5742 165.586 68.2754C164.72 66.9766 164.287 65.5182 164.287 63.9004C164.287 62.6016 164.6 61.542 165.227 60.7217C165.854 59.9014 166.68 59.4912 167.705 59.4912C168.32 59.4912 168.901 59.6393 169.448 59.9355C169.995 60.2318 170.479 60.6989 170.901 61.3369C171.322 61.9749 171.659 62.7952 171.909 63.7979C172.16 64.8005 172.285 65.9967 172.285 67.3867C172.285 68.1159 172.194 68.8792 172.012 69.6768C172.148 69.6995 172.285 69.7109 172.422 69.7109C172.559 69.7109 172.707 69.7109 172.866 69.7109C173.641 69.7109 174.336 69.6198 174.951 69.4375C175.566 69.2552 176.125 68.9818 176.626 68.6172C177.127 68.2526 177.577 67.7855 177.976 67.2158C178.375 66.6462 178.757 65.9854 179.121 65.2334C179.189 65.0967 179.338 64.9657 179.565 64.8403C179.793 64.715 180.021 64.6523 180.249 64.6523C180.545 64.6523 180.824 64.772 181.086 65.0112C181.348 65.2505 181.479 65.5638 181.479 65.9512C181.479 66.1335 181.434 66.3328 181.343 66.5493C181.252 66.7658 181.16 66.9652 181.069 67.1475C180.682 67.8311 180.232 68.4862 179.719 69.1128C179.207 69.7394 178.603 70.2863 177.908 70.7534C177.213 71.2205 176.432 71.5908 175.566 71.8643C174.701 72.1377 173.732 72.263 172.661 72.2402ZM166.816 63.627C166.816 64.0599 166.873 64.5156 166.987 64.9941C167.101 65.4727 167.278 65.9455 167.517 66.4126C167.756 66.8797 168.053 67.3241 168.406 67.7456C168.759 68.1672 169.175 68.526 169.653 68.8223C169.722 68.3438 169.756 67.8766 169.756 67.4209C169.756 66.8057 169.71 66.179 169.619 65.541C169.528 64.903 169.397 64.3162 169.226 63.7808C169.055 63.2453 168.844 62.8123 168.594 62.4819C168.343 62.1515 168.047 61.9863 167.705 61.9863C167.568 61.9863 167.386 62.0889 167.158 62.2939C166.93 62.499 166.816 62.9434 166.816 63.627ZM198.467 66.5322C198.216 67.0563 197.903 67.6772 197.527 68.395C197.151 69.1128 196.724 69.8591 196.245 70.6338C195.767 71.4085 195.231 72.1776 194.639 72.9409C194.046 73.7043 193.403 74.3879 192.708 74.9917C192.013 75.5955 191.272 76.0854 190.486 76.4614C189.7 76.8374 188.862 77.0254 187.974 77.0254C186.606 77.0254 185.433 76.6038 184.453 75.7607C183.473 74.9176 182.642 73.8125 181.958 72.4453C181.274 71.0781 180.722 69.5229 180.3 67.7798C179.879 66.0366 179.554 64.2593 179.326 62.4478C179.098 60.6362 178.945 58.876 178.865 57.167C178.785 55.458 178.745 53.9427 178.745 52.6211C178.745 50.707 178.808 48.7246 178.933 46.6738C179.058 44.623 179.258 42.6178 179.531 40.6582C179.805 38.6986 180.152 36.8415 180.574 35.0869C180.995 33.3324 181.497 31.7943 182.078 30.4727C182.659 29.151 183.325 28.1029 184.077 27.3281C184.829 26.5534 185.684 26.166 186.641 26.166C187.393 26.166 188.07 26.3426 188.674 26.6958C189.278 27.049 189.785 27.6243 190.195 28.4219C190.605 29.2194 190.924 30.2562 191.152 31.5322C191.38 32.8083 191.494 34.3691 191.494 36.2148C191.494 38.4935 191.255 40.8462 190.776 43.2729C190.298 45.6997 189.648 48.1436 188.828 50.6045C188.008 53.0654 187.039 55.5207 185.923 57.9702C184.806 60.4198 183.61 62.8066 182.334 65.1309C182.904 68.0247 183.667 70.2977 184.624 71.9497C185.581 73.6017 186.732 74.4277 188.076 74.4277C188.988 74.4277 189.865 74.0688 190.708 73.3511C191.551 72.6333 192.326 71.7845 193.032 70.8047C193.739 69.8249 194.36 68.828 194.895 67.814C195.43 66.8 195.846 65.9854 196.143 65.3701C196.257 65.1423 196.416 64.9657 196.621 64.8403C196.826 64.715 197.054 64.6523 197.305 64.6523C197.692 64.6523 198.005 64.7891 198.245 65.0625C198.484 65.3359 198.604 65.6436 198.604 65.9854C198.604 66.1221 198.558 66.3044 198.467 66.5322ZM181.343 52.792C181.343 54.2503 181.377 55.6517 181.445 56.9961C181.514 58.3405 181.605 59.6279 181.719 60.8584C182.676 59.0127 183.587 57.0474 184.453 54.9624C185.319 52.8774 186.082 50.7697 186.743 48.6392C187.404 46.5086 187.934 44.3895 188.333 42.2817C188.731 40.174 188.931 38.1631 188.931 36.249C188.931 33.5602 188.714 31.6348 188.281 30.4727C187.848 29.3105 187.267 28.7295 186.538 28.7295C186.06 28.7295 185.598 29.0599 185.154 29.7207C184.709 30.3815 184.294 31.2816 183.906 32.4209C183.519 33.5602 183.166 34.9046 182.847 36.4541C182.528 38.0036 182.26 39.667 182.043 41.4443C181.827 43.2217 181.656 45.0788 181.531 47.0156C181.405 48.9525 181.343 50.8779 181.343 52.792Z" fill="rgb(252.713,212.349,133.995)" fill-rule="nonzero" />
	</g>
</svg>
