<svg viewBox="0 0 207 110.792" xmlns="http://www.w3.org/2000/svg" xmlns:xlink="http://www.w3.org/1999/xlink" width="207.000000" height="110.791504" fill="none" customFrame="#000000">
	<g id="лого неаполь">
		<circle id="Ellipse 1" cx="50" cy="50" r="50" fill="rgb(122.026,61.3137,27.5849)" />
		<circle id="Ellipse 1" cx="50" cy="50" r="49" stroke="rgb(253,212,134)" stroke-width="2" />
		<path id="Neapol" d="M100.918 24.6245C100.872 24.9663 100.724 25.2397 100.474 25.4448C100.223 25.6499 99.9381 25.7524 99.6191 25.7524C99.5736 25.7524 99.4938 25.7524 99.3799 25.7524C99.266 25.7297 99.0039 25.7183 98.5938 25.7183C98.1608 25.7183 97.6025 25.7638 96.9189 25.855C96.2581 25.9461 95.5176 26.1398 94.6973 26.436C93.8997 26.7095 93.0566 27.1196 92.168 27.6665C91.3021 28.2134 90.4476 28.9539 89.6045 29.8882C88.7614 30.7996 87.9639 31.939 87.2119 33.3062C86.46 34.6506 85.8219 36.2798 85.2979 38.1938C85.0244 39.1509 84.7054 40.5295 84.3408 42.3296C83.999 44.1069 83.623 46.1121 83.2129 48.3452C82.8255 50.5783 82.4268 52.9595 82.0166 55.4888C81.6292 58.0181 81.2533 60.5018 80.8887 62.9399C80.5469 65.3781 80.2279 67.7023 79.9316 69.9126C79.6354 72.1001 79.4075 73.98 79.248 75.5522C79.2025 75.8485 79.0658 76.1105 78.8379 76.3384C78.6328 76.589 78.3708 76.7144 78.0518 76.7144C77.7327 76.7144 77.4479 76.6346 77.1973 76.4751C76.9694 76.3156 76.8099 76.0763 76.7188 75.7573C76.4225 74.6636 75.9554 73.1483 75.3174 71.2114C74.6794 69.2746 73.9388 67.0985 73.0957 64.6831C72.2754 62.245 71.3753 59.6587 70.3955 56.9243C69.4157 54.1899 68.4359 51.4897 67.4561 48.8237C66.499 46.1349 65.5648 43.5714 64.6533 41.1333C63.7646 38.6724 62.9785 36.5076 62.2949 34.6392C62.181 35.9152 61.9987 37.3394 61.748 38.9116C61.5202 40.4611 61.2012 42.1359 60.791 43.936C60.4036 45.7134 59.9137 47.6047 59.3213 49.6099C58.7288 51.5923 58.0225 53.6545 57.2021 55.7964C55.9261 59.0776 54.4222 61.8804 52.6904 64.2046C50.9814 66.5288 49.1813 68.4657 47.29 70.0151C45.3988 71.5646 43.4733 72.7951 41.5137 73.7065C39.5768 74.5952 37.7539 75.2674 36.0449 75.7231C34.3359 76.1789 32.7979 76.4637 31.4307 76.5776C30.0635 76.7144 29.0153 76.7827 28.2861 76.7827C25.7796 76.7827 23.4668 76.4523 21.3477 75.7915C19.2513 75.1307 17.4284 74.1965 15.8789 72.9888C14.3522 71.7583 13.1559 70.3 12.29 68.6138C11.4469 66.9048 11.0254 65.0249 11.0254 62.9741C11.0254 61.1284 11.4355 59.408 12.2559 57.813C13.099 56.1952 14.2155 54.7938 15.6055 53.6089C17.0182 52.424 18.6247 51.4897 20.4248 50.8062C22.2477 50.1226 24.139 49.7808 26.0986 49.7808C27.7165 49.7808 29.1634 49.9403 30.4395 50.2593C31.7383 50.5783 32.8776 50.9884 33.8574 51.4897C34.86 51.9683 35.7145 52.4923 36.4209 53.062C37.1501 53.6317 37.7425 54.1786 38.1982 54.7026C38.6768 55.2039 39.0299 55.6369 39.2578 56.0015C39.5085 56.3661 39.6566 56.5825 39.7021 56.6509C39.7933 56.8332 39.8389 57.0382 39.8389 57.2661C39.8389 57.5851 39.7135 57.8813 39.4629 58.1548C39.235 58.4282 38.9274 58.5649 38.54 58.5649C38.0387 58.5649 37.6628 58.3371 37.4121 57.8813C37.3893 57.813 37.1615 57.494 36.7285 56.9243C36.3184 56.3319 35.6689 55.6938 34.7803 55.0103C33.9144 54.3267 32.7865 53.7114 31.3965 53.1646C30.0065 52.5949 28.3203 52.3101 26.3379 52.3101C24.7201 52.3101 23.1364 52.5835 21.5869 53.1304C20.0602 53.6772 18.7044 54.4292 17.5195 55.3862C16.3346 56.3433 15.3776 57.4826 14.6484 58.8042C13.9421 60.103 13.5889 61.5158 13.5889 63.0425C13.5889 64.7059 13.9762 66.2326 14.751 67.6226C15.5257 68.9897 16.5739 70.1633 17.8955 71.1431C19.2399 72.1229 20.7894 72.8862 22.5439 73.4331C24.3213 73.9572 26.2126 74.2192 28.2178 74.2192C28.9925 74.2192 30.0179 74.1623 31.2939 74.0483C32.57 73.9344 33.9941 73.6724 35.5664 73.2622C37.1615 72.8521 38.8363 72.2368 40.5908 71.4165C42.3454 70.5734 44.0771 69.4341 45.7861 67.9985C47.4951 66.563 49.1243 64.7742 50.6738 62.6323C52.2461 60.4904 53.6247 57.8927 54.8096 54.8394C56.04 51.6948 56.9971 48.7098 57.6807 45.8843C58.387 43.036 58.9111 40.4725 59.2529 38.1938C59.5947 35.9152 59.7998 33.9784 59.8682 32.3833C59.9593 30.7655 60.0049 29.6147 60.0049 28.9312L60.0049 28.2476C60.0049 27.883 60.1188 27.5754 60.3467 27.3247C60.5973 27.0513 60.9163 26.9146 61.3037 26.9146C61.8734 26.9146 62.2721 27.1994 62.5 27.769C62.5684 27.9285 62.762 28.464 63.0811 29.3755C63.4229 30.2869 63.8558 31.4718 64.3799 32.9302C64.9268 34.3657 65.542 36.0291 66.2256 37.9204C66.932 39.8117 67.6725 41.8283 68.4473 43.9702C69.222 46.0894 70.0195 48.2882 70.8398 50.5669C71.6602 52.8455 72.4577 55.09 73.2324 57.3003C74.03 59.5106 74.7819 61.6411 75.4883 63.6919C76.1947 65.7427 76.8327 67.6112 77.4023 69.2974C77.653 67.4744 77.9264 65.549 78.2227 63.521C78.5189 61.4702 78.8265 59.408 79.1455 57.3345C79.4873 55.2381 79.8177 53.1873 80.1367 51.1821C80.4785 49.1769 80.8089 47.297 81.1279 45.5425C81.4697 43.7879 81.7773 42.2157 82.0508 40.8257C82.3242 39.4357 82.5749 38.3192 82.8027 37.4761C83.304 35.4709 84.0218 33.6024 84.9561 31.8706C85.8903 30.116 87.0182 28.5894 88.3398 27.2905C89.6842 25.9917 91.2109 24.9777 92.9199 24.2485C94.6517 23.4966 96.5658 23.1206 98.6621 23.1206C99.4596 23.1206 100.029 23.2118 100.371 23.394C100.736 23.5763 100.918 23.9295 100.918 24.4536L100.918 24.6245L100.918 24.6245ZM94.3555 72.271C94.834 72.9318 95.4492 73.4673 96.2012 73.8774C96.9531 74.2648 97.876 74.4585 98.9697 74.4585C100.086 74.4585 101.1 74.1965 102.012 73.6724C102.923 73.1255 103.755 72.4191 104.507 71.5532C105.259 70.6873 105.931 69.7189 106.523 68.6479C107.116 67.577 107.651 66.506 108.13 65.4351C108.244 65.1844 108.403 65.0021 108.608 64.8882C108.813 64.7515 109.041 64.6831 109.292 64.6831C109.679 64.6831 109.987 64.8198 110.215 65.0933C110.465 65.3667 110.591 65.6629 110.591 65.9819C110.591 66.0959 110.579 66.1984 110.557 66.2896C110.534 66.3579 110.5 66.4377 110.454 66.5288C108.882 69.9924 107.161 72.6014 105.293 74.356C103.447 76.1105 101.351 77.0106 99.0039 77.0562C97.5 77.0562 96.2012 76.7599 95.1074 76.1675C94.0137 75.5978 93.1136 74.8573 92.4072 73.9458C91.7008 73.0116 91.1768 71.9634 90.835 70.8013C90.4932 69.6392 90.3223 68.4771 90.3223 67.3149C90.3223 66.1528 90.459 65.0819 90.7324 64.1021C91.0286 63.1222 91.4388 62.2677 91.9629 61.5386C92.5098 60.8094 93.1478 60.2397 93.877 59.8296C94.6289 59.4194 95.4492 59.2144 96.3379 59.2144C96.862 59.2144 97.3747 59.3283 97.876 59.5562C98.4001 59.7612 98.8672 60.0688 99.2773 60.479C99.6875 60.8664 100.018 61.3449 100.269 61.9146C100.519 62.4842 100.645 63.1336 100.645 63.8628C100.645 64.797 100.485 65.6743 100.166 66.4946C99.847 67.3149 99.4027 68.0783 98.833 68.7847C98.2861 69.491 97.6253 70.1405 96.8506 70.7329C96.0758 71.3254 95.2441 71.8381 94.3555 72.271ZM93.3301 70.0493C94.0365 69.7531 94.6745 69.3771 95.2441 68.9214C95.8366 68.4657 96.3379 67.9644 96.748 67.4175C97.1582 66.8706 97.4772 66.3009 97.7051 65.7085C97.9329 65.0933 98.0469 64.478 98.0469 63.8628C98.0469 63.1792 97.876 62.6665 97.5342 62.3247C97.1924 61.9601 96.7936 61.7778 96.3379 61.7778C95.7227 61.7778 95.1986 61.9487 94.7656 62.2905C94.3327 62.6323 93.9795 63.0767 93.7061 63.6235C93.4326 64.1704 93.2275 64.7856 93.0908 65.4692C92.9769 66.1301 92.9199 66.7908 92.9199 67.4517C92.9199 67.8618 92.9541 68.2948 93.0225 68.7505C93.1136 69.2062 93.2161 69.6392 93.3301 70.0493ZM134.585 66.4946C134.494 66.6769 134.3 67.0643 134.004 67.6567C133.73 68.2264 133.366 68.8872 132.91 69.6392C132.477 70.3911 131.965 71.1772 131.372 71.9976C130.78 72.8179 130.119 73.5698 129.39 74.2534C128.66 74.937 127.874 75.5067 127.031 75.9624C126.188 76.3953 125.299 76.6118 124.365 76.6118C123.044 76.6118 121.927 76.1903 121.016 75.3472C120.127 74.5041 119.478 73.4445 119.067 72.1685C118.293 73.4673 117.37 74.5041 116.299 75.2788C115.228 76.0308 114.157 76.4067 113.086 76.4067C112.243 76.4067 111.479 76.2586 110.796 75.9624C110.112 75.6434 109.531 75.2104 109.053 74.6636C108.574 74.0939 108.198 73.4331 107.925 72.6812C107.674 71.9292 107.549 71.1089 107.549 70.2202C107.549 68.4429 107.845 66.882 108.438 65.5376C109.053 64.1704 109.827 63.0311 110.762 62.1196C111.696 61.2082 112.721 60.5246 113.838 60.0688C114.977 59.6131 116.071 59.3853 117.119 59.3853C117.826 59.3853 118.475 59.4878 119.067 59.6929C119.66 59.8752 120.161 60.0802 120.571 60.3081C121.004 60.536 121.335 60.7524 121.562 60.9575C121.79 61.1398 121.916 61.2424 121.938 61.2651C122.189 61.5614 122.314 61.869 122.314 62.188C122.314 62.5298 122.189 62.8374 121.938 63.1108C121.688 63.3615 121.392 63.4868 121.05 63.4868C120.685 63.4868 120.378 63.3615 120.127 63.1108C120.081 63.0653 119.979 62.9855 119.819 62.8716C119.66 62.7349 119.443 62.5981 119.17 62.4614C118.896 62.3247 118.566 62.2108 118.179 62.1196C117.814 62.0057 117.393 61.9487 116.914 61.9487C116.208 61.9487 115.456 62.1082 114.658 62.4272C113.861 62.7463 113.132 63.2476 112.471 63.9312C111.81 64.592 111.252 65.4351 110.796 66.4604C110.363 67.4631 110.146 68.6593 110.146 70.0493C110.146 70.4823 110.192 70.9266 110.283 71.3823C110.374 71.8153 110.534 72.214 110.762 72.5786C110.99 72.9432 111.297 73.2394 111.685 73.4673C112.072 73.6951 112.55 73.8091 113.12 73.8091C113.53 73.8091 113.997 73.6724 114.521 73.3989C115.068 73.1255 115.581 72.7039 116.06 72.1343C116.561 71.5646 117.005 70.8468 117.393 69.981C117.803 69.1151 118.088 68.0897 118.247 66.9048C118.293 66.5858 118.441 66.3237 118.691 66.1187C118.942 65.8908 119.238 65.7769 119.58 65.7769C119.899 65.7769 120.173 65.9022 120.4 66.1528C120.651 66.4035 120.788 66.6883 120.811 67.0073C120.833 67.4403 120.879 68.0555 120.947 68.853C121.016 69.6278 121.164 70.4025 121.392 71.1772C121.642 71.952 122.007 72.6242 122.485 73.1938C122.964 73.7635 123.625 74.0483 124.468 74.0483C125.015 74.0483 125.55 73.9002 126.074 73.604C126.621 73.3078 127.145 72.9204 127.646 72.4419C128.171 71.9406 128.66 71.3823 129.116 70.7671C129.595 70.1291 130.028 69.491 130.415 68.853C130.802 68.215 131.144 67.5998 131.44 67.0073C131.737 66.4149 131.987 65.9022 132.192 65.4692C132.306 65.2186 132.466 65.0249 132.671 64.8882C132.899 64.7515 133.138 64.6831 133.389 64.6831C133.776 64.6831 134.084 64.8312 134.312 65.1274C134.562 65.4009 134.688 65.6971 134.688 66.0161C134.688 66.1756 134.653 66.3351 134.585 66.4946ZM149.761 66.4946C149.761 68.591 149.385 70.3797 148.633 71.8608C147.881 73.342 146.958 74.4699 145.864 75.2446L146.001 75.2446C147.345 75.2446 148.564 74.9484 149.658 74.356C150.775 73.7407 151.777 72.966 152.666 72.0317C153.555 71.0747 154.352 70.0151 155.059 68.853C155.765 67.6909 156.392 66.563 156.938 65.4692C157.052 65.2186 157.212 65.0249 157.417 64.8882C157.645 64.7515 157.884 64.6831 158.135 64.6831C158.522 64.6831 158.83 64.8198 159.058 65.0933C159.285 65.3667 159.399 65.6629 159.399 65.9819C159.399 66.1642 159.365 66.3351 159.297 66.4946C158.704 67.8162 157.998 69.1492 157.178 70.4937C156.357 71.8153 155.4 73.0116 154.307 74.0825C153.213 75.1535 151.982 76.0194 150.615 76.6802C149.248 77.3638 147.733 77.7056 146.069 77.7056C144.862 77.7056 143.688 77.5119 142.549 77.1245C141.41 76.7599 140.407 76.1789 139.541 75.3813C139.222 75.1307 138.949 74.8687 138.721 74.5952C138.493 74.299 138.311 74.0256 138.174 73.7749C138.128 73.7293 138.105 73.6838 138.105 73.6382C137.969 73.4331 137.9 73.2166 137.9 72.9888C137.9 72.6926 138.003 72.4191 138.208 72.1685C138.231 72.1229 138.254 72.1001 138.276 72.1001C138.299 72.0773 138.322 72.0545 138.345 72.0317C138.573 71.8267 138.823 71.7127 139.097 71.6899L139.199 71.6899C139.313 71.6899 139.393 71.7013 139.438 71.7241C139.461 71.7241 139.473 71.7355 139.473 71.7583C139.495 71.7583 139.518 71.7583 139.541 71.7583C139.609 71.7583 139.689 71.7811 139.78 71.8267C139.803 71.8494 139.826 71.8608 139.849 71.8608C140.054 71.9976 140.225 72.1685 140.361 72.3735C140.521 72.647 140.703 72.8976 140.908 73.1255C141.09 73.3078 141.307 73.4787 141.558 73.6382C141.808 73.7749 142.093 73.8433 142.412 73.8433C142.982 73.8433 143.551 73.6724 144.121 73.3306C144.691 72.9888 145.203 72.4989 145.659 71.8608C146.115 71.2228 146.479 70.4481 146.753 69.5366C147.049 68.6252 147.197 67.6112 147.197 66.4946C147.197 65.6743 147.106 64.9793 146.924 64.4097C146.764 63.8172 146.548 63.3387 146.274 62.9741C146.024 62.6095 145.75 62.3475 145.454 62.188C145.158 62.0057 144.873 61.9146 144.6 61.9146C143.984 61.9146 143.358 62.2336 142.72 62.8716C142.104 63.5096 141.489 64.3185 140.874 65.2983C140.259 66.2782 139.644 67.3605 139.028 68.5454C138.436 69.7303 137.832 70.881 137.217 71.9976C137.171 75.689 137.103 79.2095 137.012 82.5591C136.943 85.9087 136.807 89.019 136.602 91.8901C136.419 94.7612 136.157 97.3589 135.815 99.6831C135.474 102.007 135.007 103.99 134.414 105.63C133.822 107.294 133.092 108.57 132.227 109.458C131.361 110.347 130.301 110.792 129.048 110.792C128.66 110.792 128.216 110.712 127.715 110.552C127.214 110.393 126.746 110.062 126.313 109.561C125.881 109.083 125.516 108.388 125.22 107.476C124.924 106.565 124.775 105.346 124.775 103.819C124.775 101.882 125.015 99.6375 125.493 97.0854C125.972 94.5334 126.655 91.8218 127.544 88.9507C128.41 86.1024 129.447 83.1743 130.654 80.1665C131.862 77.1587 133.195 74.2306 134.653 71.3823C134.653 70.5848 134.653 69.7987 134.653 69.0239C134.676 68.2492 134.688 67.4972 134.688 66.7681C134.391 67.1099 134.038 67.2808 133.628 67.2808C133.241 67.2808 132.933 67.144 132.705 66.8706C132.477 66.5972 132.363 66.3009 132.363 65.9819C132.363 65.8224 132.397 65.6515 132.466 65.4692C133.013 64.216 133.434 63.0311 133.73 61.9146C134.027 60.7752 134.243 59.784 134.38 58.9409C134.539 58.075 134.631 57.3914 134.653 56.8901C134.676 56.3888 134.688 56.1268 134.688 56.104C134.688 55.7622 134.813 55.466 135.063 55.2153C135.314 54.9647 135.622 54.8394 135.986 54.8394C136.328 54.8394 136.624 54.9647 136.875 55.2153C137.126 55.4432 137.251 55.7394 137.251 56.104L137.251 66.5972C137.775 65.7085 138.299 64.8312 138.823 63.9653C139.347 63.0994 139.894 62.3247 140.464 61.6411C141.056 60.9575 141.683 60.4106 142.344 60.0005C143.027 59.5675 143.779 59.3511 144.6 59.3511C145.374 59.3511 146.081 59.5334 146.719 59.8979C147.357 60.2625 147.904 60.7638 148.359 61.4019C148.815 62.0399 149.157 62.8032 149.385 63.6919C149.635 64.5578 149.761 65.492 149.761 66.4946ZM134.585 77.4663C133.468 79.9728 132.454 82.4907 131.543 85.02C130.654 87.5493 129.902 89.9875 129.287 92.3345C128.649 94.6815 128.159 96.8804 127.817 98.9312C127.476 100.982 127.305 102.782 127.305 104.332C127.305 104.719 127.327 105.14 127.373 105.596C127.419 106.052 127.51 106.473 127.646 106.861C127.783 107.248 127.977 107.567 128.228 107.818C128.478 108.091 128.809 108.228 129.219 108.228C129.971 108.228 130.62 107.75 131.167 106.792C131.714 105.858 132.17 104.582 132.534 102.964C132.922 101.369 133.241 99.5236 133.491 97.4272C133.742 95.3537 133.936 93.1776 134.072 90.8989C134.232 88.6203 134.346 86.3188 134.414 83.9946C134.482 81.6932 134.539 79.5171 134.585 77.4663ZM172.729 72.271C172.16 72.271 171.659 72.2254 171.226 72.1343C170.884 72.8179 170.474 73.4559 169.995 74.0483C169.517 74.618 168.958 75.1193 168.32 75.5522C167.705 75.9852 167.01 76.327 166.235 76.5776C165.461 76.8283 164.618 76.9536 163.706 76.9536C162.635 76.9536 161.655 76.7599 160.767 76.3726C159.878 76.008 159.103 75.4953 158.442 74.8345C157.782 74.1509 157.269 73.342 156.904 72.4077C156.54 71.4507 156.357 70.4025 156.357 69.2632C156.357 67.8048 156.619 66.5402 157.144 65.4692C157.668 64.3755 158.271 63.4754 158.955 62.769C159.639 62.0399 160.322 61.5044 161.006 61.1626C161.689 60.798 162.202 60.6157 162.544 60.6157C162.931 60.6157 163.216 60.7183 163.398 60.9233C163.604 61.1284 163.706 61.4019 163.706 61.7437C163.706 62.131 163.581 62.4272 163.33 62.6323C163.102 62.8146 162.806 62.9969 162.441 63.1792C162.077 63.3615 161.689 63.6235 161.279 63.9653C160.869 64.2843 160.482 64.6945 160.117 65.1958C159.775 65.6971 159.491 66.2896 159.263 66.9731C159.035 67.6567 158.921 68.4201 158.921 69.2632C158.921 70.0151 159.035 70.7215 159.263 71.3823C159.491 72.0203 159.821 72.5786 160.254 73.0571C160.687 73.5129 161.2 73.8774 161.792 74.1509C162.384 74.4015 163.045 74.5269 163.774 74.5269C165.073 74.5269 166.144 74.2306 166.987 73.6382C167.853 73.0229 168.514 72.2482 168.97 71.314C167.625 70.6076 166.52 69.605 165.654 68.3062C164.788 67.0073 164.355 65.549 164.355 63.9312C164.355 62.6323 164.663 61.5728 165.278 60.7524C165.916 59.9321 166.748 59.522 167.773 59.522C168.389 59.522 168.97 59.6701 169.517 59.9663C170.063 60.2625 170.542 60.7297 170.952 61.3677C171.385 62.0057 171.727 62.826 171.978 63.8286C172.228 64.8312 172.354 66.0275 172.354 67.4175C172.354 68.1467 172.262 68.91 172.08 69.7075C172.217 69.7303 172.354 69.7417 172.49 69.7417C172.627 69.7417 172.775 69.7417 172.935 69.7417C173.709 69.7417 174.404 69.6506 175.02 69.4683C175.635 69.286 176.193 69.0125 176.694 68.6479C177.196 68.2834 177.64 67.8162 178.027 67.2466C178.438 66.6769 178.825 66.0161 179.189 65.2642C179.258 65.1274 179.406 65.0021 179.634 64.8882C179.862 64.7515 180.09 64.6831 180.317 64.6831C180.614 64.6831 180.887 64.8084 181.138 65.0591C181.411 65.2869 181.548 65.5946 181.548 65.9819C181.548 66.1642 181.502 66.3693 181.411 66.5972C181.32 66.8022 181.229 66.9959 181.138 67.1782C180.75 67.8618 180.295 68.5226 179.771 69.1606C179.269 69.7759 178.665 70.3228 177.959 70.8013C177.275 71.257 176.501 71.6216 175.635 71.895C174.769 72.1685 173.8 72.2938 172.729 72.271ZM166.885 63.6577C166.885 64.0907 166.942 64.5464 167.056 65.0249C167.17 65.5034 167.34 65.9819 167.568 66.4604C167.819 66.9162 168.115 67.3605 168.457 67.7935C168.822 68.2036 169.243 68.5568 169.722 68.853C169.79 68.3745 169.824 67.9074 169.824 67.4517C169.824 66.8364 169.779 66.2098 169.688 65.5718C169.596 64.9338 169.46 64.3527 169.277 63.8286C169.118 63.2817 168.913 62.8488 168.662 62.5298C168.411 62.188 168.115 62.0171 167.773 62.0171C167.637 62.0171 167.454 62.1196 167.227 62.3247C166.999 62.5298 166.885 62.9741 166.885 63.6577ZM198.569 66.563C198.319 67.0871 198 67.7137 197.612 68.4429C197.248 69.1492 196.826 69.8898 196.348 70.6646C195.869 71.4393 195.334 72.214 194.741 72.9888C194.149 73.7407 193.499 74.4243 192.793 75.0396C192.109 75.632 191.369 76.1105 190.571 76.4751C189.797 76.8625 188.965 77.0562 188.076 77.0562C186.709 77.0562 185.535 76.6346 184.556 75.7915C183.576 74.9484 182.744 73.8433 182.061 72.4761C181.377 71.1089 180.819 69.5594 180.386 67.8276C179.976 66.0731 179.657 64.2957 179.429 62.4956C179.201 60.6727 179.041 58.9067 178.95 57.1978C178.882 55.4888 178.848 53.9735 178.848 52.6519C178.848 50.7378 178.905 48.7554 179.019 46.7046C179.155 44.6538 179.36 42.6486 179.634 40.689C179.907 38.7293 180.249 36.8722 180.659 35.1177C181.092 33.3631 181.593 31.825 182.163 30.5034C182.756 29.1818 183.428 28.1336 184.18 27.3589C184.932 26.5841 185.786 26.1968 186.743 26.1968C187.495 26.1968 188.167 26.3791 188.76 26.7437C189.375 27.0854 189.888 27.6551 190.298 28.4526C190.708 29.2502 191.027 30.2869 191.255 31.563C191.483 32.839 191.597 34.3999 191.597 36.2456C191.597 38.5243 191.357 40.8826 190.879 43.3208C190.4 45.7362 189.751 48.1743 188.931 50.6353C188.11 53.0962 187.142 55.5571 186.025 58.0181C184.909 60.4562 183.713 62.8374 182.437 65.1616C183.006 68.0555 183.77 70.3342 184.727 71.9976C185.684 73.6382 186.834 74.4585 188.179 74.4585C189.09 74.4585 189.967 74.1053 190.811 73.3989C191.654 72.6698 192.428 71.8153 193.135 70.8354C193.841 69.8556 194.456 68.8644 194.98 67.8618C195.527 66.8364 195.949 66.0161 196.245 65.4009C196.359 65.173 196.519 65.0021 196.724 64.8882C196.929 64.7515 197.157 64.6831 197.407 64.6831C197.795 64.6831 198.102 64.8198 198.33 65.0933C198.581 65.3667 198.706 65.6743 198.706 66.0161C198.706 66.1528 198.66 66.3351 198.569 66.563ZM181.445 52.8228C181.445 54.2811 181.479 55.6825 181.548 57.0269C181.616 58.3713 181.707 59.6587 181.821 60.8892C182.778 59.0435 183.69 57.0838 184.556 55.0103C185.422 52.9139 186.185 50.8062 186.846 48.687C187.507 46.5451 188.031 44.4259 188.418 42.3296C188.828 40.2104 189.033 38.1938 189.033 36.2798C189.033 33.591 188.817 31.6655 188.384 30.5034C187.951 29.3413 187.37 28.7603 186.641 28.7603C186.162 28.7603 185.695 29.0907 185.239 29.7515C184.806 30.4123 184.396 31.3123 184.009 32.4517C183.621 33.591 183.268 34.9354 182.949 36.4849C182.63 38.0343 182.357 39.6978 182.129 41.4751C181.924 43.2524 181.753 45.1095 181.616 47.0464C181.502 48.9832 181.445 50.9087 181.445 52.8228Z" fill="rgb(252.713,212.349,133.995)" fill-rule="nonzero" />
	</g>
</svg>
